HIERARCHY
ROOT root
{
	OFFSET 0.000000 0.000000 0.000000
	CHANNELS 6 Xposition Yposition Zposition Zrotation Yrotation Xrotation
	JOINT lhip
	{
		OFFSET 0.058581 -0.082280 -0.017664
		CHANNELS 3 Zrotation Yrotation Xrotation
		JOINT lknee
		{
			OFFSET 0.043451 -0.386469 0.008037
			CHANNELS 3 Zrotation Yrotation Xrotation
			JOINT lankle
			{
				OFFSET -0.014790 -0.426874 -0.037428
				CHANNELS 3 Zrotation Yrotation Xrotation
				JOINT ltoe
				{
					OFFSET 0.041054 -0.060286 0.122042
					CHANNELS 3 Zrotation Yrotation Xrotation
					End Site
					{
						OFFSET 0.000000 0.000000 0.000000
					}
				}
			}
		}
	}
	JOINT rhip
	{
		OFFSET -0.060310 -0.090513 -0.013543
		CHANNELS 3 Zrotation Yrotation Xrotation
		JOINT rknee
		{
			OFFSET -0.043257 -0.383688 -0.004843
			CHANNELS 3 Zrotation Yrotation Xrotation
			JOINT rankle
			{
				OFFSET 0.019056 -0.420046 -0.034562
				CHANNELS 3 Zrotation Yrotation Xrotation
				JOINT rtoe
				{
					OFFSET -0.034840 -0.062106 0.130323
					CHANNELS 3 Zrotation Yrotation Xrotation
					End Site
					{
						OFFSET 0.000000 0.000000 0.000000
					}
				}
			}
		}
	}
	JOINT lowerback
	{
		OFFSET 0.004439 0.124404 -0.038385
		CHANNELS 3 Zrotation Yrotation Xrotation
		JOINT upperback
		{
			OFFSET 0.004488 0.137956 0.026820
			CHANNELS 3 Zrotation Yrotation Xrotation
			JOINT chest
			{
				OFFSET -0.002265 0.056032 0.002855
				CHANNELS 3 Zrotation Yrotation Xrotation
				JOINT lowerneck
				{
					OFFSET -0.013390 0.211636 -0.033468
					CHANNELS 3 Zrotation Yrotation Xrotation
					JOINT upperneck
					{
						OFFSET 0.010113 0.088937 0.050410
						CHANNELS 3 Zrotation Yrotation Xrotation
						End Site
						{
							OFFSET 0.000000 0.000000 0.000000
						}
					}
				}
				JOINT lclavicle
				{
					OFFSET 0.071702 0.114000 -0.018898
					CHANNELS 3 Zrotation Yrotation Xrotation
					JOINT lshoulder
					{
						OFFSET 0.122921 0.045205 -0.019046
						CHANNELS 3 Zrotation Yrotation Xrotation
						JOINT lelbow
						{
							OFFSET 0.255332 -0.015649 -0.022946
							CHANNELS 3 Zrotation Yrotation Xrotation
							JOINT lwrist
							{
								OFFSET 0.265709 0.012698 -0.007375
								CHANNELS 3 Zrotation Yrotation Xrotation
								End Site
								{
									OFFSET 0.000000 0.000000 0.000000
								}
							}
						}
					}
				}
				JOINT rclavicle
				{
					OFFSET -0.082954 0.112472 -0.023707
					CHANNELS 3 Zrotation Yrotation Xrotation
					JOINT rshoulder
					{
						OFFSET -0.113228 0.046853 -0.008472
						CHANNELS 3 Zrotation Yrotation Xrotation
						JOINT relbow
						{
							OFFSET -0.260127 -0.014369 -0.031269
							CHANNELS 3 Zrotation Yrotation Xrotation
							JOINT rwrist
							{
								OFFSET -0.269108 0.006794 -0.006027
								CHANNELS 3 Zrotation Yrotation Xrotation
								End Site
								{
									OFFSET 0.000000 0.000000 0.000000
								}
							}
						}
					}
				}
			}
		}
	}
}
MOTION
Frames: 7
Frame Time: 0.033333
1.266179 0.527490 0.975817 -82.723161 1.219906 95.491188 9.949834 7.050809 25.087763 -1.076391 -1.232274 -8.493512 -2.191825 18.547579 -8.157818 0.000000 -0.000000 0.000000 5.082746 13.357637 -28.549837 -0.445438 -3.794606 44.847305 -1.002721 -12.699013 -22.889739 0.000000 -0.000000 0.000000 -1.629427 -11.097330 -6.958563 -4.279182 -2.659368 4.449131 -5.243331 -1.224242 -2.968563 4.659864 -8.556536 35.393879 20.863559 -1.439143 -5.512215 -6.361974 -5.514299 9.286146 -65.500320 -12.759439 12.010667 18.133913 -38.314921 -3.583177 -14.534733 -10.767845 1.773215 -9.447097 11.970924 10.128692 86.950131 13.918588 16.549905 6.019669 58.429501 36.450758 11.242762 11.761584 -13.507607 
1.259254 0.523092 0.973900 -82.439044 1.097888 95.912847 9.489990 7.362254 25.248485 -0.793288 -1.485873 -8.860887 -2.536022 19.296328 -8.159029 0.000000 -0.000000 0.000000 4.578013 12.915729 -28.439667 -0.224694 -3.821481 45.037535 -0.564619 -12.387134 -24.467611 0.000000 -0.000000 0.000000 -0.975041 -10.480034 -6.471045 -3.178206 -2.640901 4.334235 -4.316996 -0.977085 -2.284879 4.498670 -8.871503 36.846189 20.870064 -1.572657 -5.403774 -7.143028 -5.787056 10.249623 -65.945197 -14.250692 10.524129 16.735306 -37.637302 -3.125857 -14.508694 -11.253324 3.810436 -9.767828 12.133867 9.616280 85.763029 13.720089 14.805350 5.488243 58.384009 34.826001 11.855138 11.852569 -11.956247 
1.252191 0.520295 0.971425 -82.446247 0.892586 96.243674 9.278549 7.607644 25.378676 -0.835360 -0.922996 -8.757169 -2.533592 18.544450 -7.965707 0.000000 -0.000000 0.000000 4.187438 12.845965 -28.206426 -0.480264 -4.312957 45.254844 -0.739391 -11.910989 -25.607409 0.000000 -0.000000 0.000000 0.446452 -10.658443 -6.625688 -3.366133 -2.498712 5.083957 -4.693615 -1.165065 -3.237175 4.922872 -9.008845 36.799458 20.764127 -1.243084 -4.814208 -7.238647 -5.672769 9.823150 -65.395966 -12.736119 11.737947 17.845617 -38.732330 -2.992956 -14.931235 -11.340082 2.199636 -9.344179 12.593123 10.122330 85.810359 14.264587 15.574231 3.877195 58.326510 33.567417 11.826752 11.870221 -12.643367 
1.235080 0.516595 0.969564 -82.235307 0.611824 96.368102 9.240403 7.693561 26.126427 -0.752309 -1.174556 -8.611480 -3.263426 18.442866 -6.481517 0.000000 -0.000000 0.000000 4.218115 12.367180 -26.472978 -0.591250 -4.234821 44.648862 -0.826254 -12.101334 -27.479043 0.000000 -0.000000 0.000000 1.169241 -10.583527 -7.172844 -2.704030 -2.639187 4.348626 -4.382851 -0.861578 -2.914242 5.770297 -10.034319 36.214288 20.983461 -1.754183 -5.016036 -7.136517 -5.474713 9.546592 -66.265492 -13.319187 12.618967 16.645138 -37.709320 -1.629295 -15.021241 -11.433897 2.525171 -9.028088 12.075058 9.729915 85.792949 13.443672 15.726478 4.151376 57.179636 33.829908 12.098458 11.734432 -11.946278 
1.214297 0.514483 0.970771 -81.514621 0.430553 96.108265 9.667616 7.308761 27.037997 -0.690583 -2.011358 -8.013834 -4.405768 18.722396 -4.229658 0.000000 -0.000000 0.000000 4.804635 11.826747 -23.922344 -0.843892 -4.168767 43.637422 -1.025334 -12.808397 -28.665668 0.000000 -0.000000 0.000000 0.792355 -10.426757 -8.923190 -1.720807 -3.667493 3.935878 -3.239459 -1.271095 -1.946578 5.690576 -10.226532 35.578642 21.294095 -1.476495 -6.500961 -7.889575 -6.279808 10.943003 -67.233392 -13.928834 10.190701 15.490637 -37.506239 -1.422422 -14.994463 -11.383582 4.385947 -9.350336 12.134930 9.265985 85.526647 12.395177 14.132119 7.264421 55.836745 36.804276 13.398614 11.562724 -10.022049 
1.189715 0.513285 0.971757 -80.356880 -0.144265 95.718922 10.317870 6.813151 27.961875 -1.012799 -2.011404 -7.106718 -5.088388 17.408557 -0.928202 0.000000 -0.000000 0.000000 5.347569 11.120878 -20.884119 -1.600508 -4.471133 42.341790 -1.777701 -13.408874 -29.394011 0.000000 -0.000000 0.000000 0.921120 -10.556236 -11.688001 -2.216037 -4.507880 4.943537 -3.289049 -2.324070 -2.782252 6.025736 -10.043761 34.123211 21.508085 -1.103311 -6.820717 -8.196883 -6.454754 9.891840 -67.022632 -11.393286 10.719327 16.436376 -38.842305 -1.627422 -15.661753 -11.075749 3.347854 -9.487174 12.242778 9.561377 86.298161 11.743862 14.749482 8.987423 54.805829 38.851532 14.308764 11.339202 -10.081474 
1.163186 0.512774 0.974502 -78.718873 -0.899035 95.158875 11.240733 6.402755 28.569070 -1.400488 -2.734331 -5.794414 -5.912469 16.599103 2.969521 0.000000 -0.000000 0.000000 5.939808 10.012332 -17.287801 -1.952976 -4.241488 40.304212 -2.248364 -14.678754 -29.863471 0.000000 -0.000000 0.000000 0.045223 -10.777529 -13.746077 -2.435735 -5.076606 4.065074 -3.455072 -2.423317 -2.647651 6.529820 -10.696547 32.634066 21.987395 -1.321675 -6.793807 -7.592412 -6.093408 10.025117 -67.568860 -11.884438 11.676361 15.725990 -38.792331 -1.040089 -15.263190 -10.858344 3.351193 -9.424362 10.955847 9.601536 86.782467 10.490465 15.423449 10.994103 53.491992 41.195929 14.377134 11.304082 -10.054582 
